<svg width="309" height="42" viewBox="0 0 309 42" fill="none" xmlns="http://www.w3.org/2000/svg">
<path d="M4.15 38V3H10.85L25.75 27.7H22.2L36.85 3H43.5L43.6 38H36L35.95 14.65H37.35L25.65 34.3H22L10.05 14.65H11.75V38H4.15ZM47.4039 38L63.0039 3H71.0039L86.6539 38H78.1539L65.3539 7.1H68.5539L55.7039 38H47.4039ZM55.2039 30.5L57.3539 24.35H75.3539L77.5539 30.5H55.2039ZM90.3852 38V3H105.535C108.668 3 111.368 3.51666 113.635 4.55C115.902 5.55 117.652 7 118.885 8.9C120.118 10.8 120.735 13.0667 120.735 15.7C120.735 18.3 120.118 20.55 118.885 22.45C117.652 24.3167 115.902 25.75 113.635 26.75C111.368 27.75 108.668 28.25 105.535 28.25H94.8852L98.4852 24.7V38H90.3852ZM112.635 38L103.885 25.3H112.535L121.385 38H112.635ZM98.4852 25.6L94.8852 21.8H105.085C107.585 21.8 109.452 21.2667 110.685 20.2C111.918 19.1 112.535 17.6 112.535 15.7C112.535 13.7667 111.918 12.2667 110.685 11.2C109.452 10.1333 107.585 9.6 105.085 9.6H94.8852L98.4852 5.75V25.6ZM127.253 38V3H133.953L148.853 27.7H145.303L159.953 3H166.603L166.703 38H159.103L159.053 14.65H160.453L148.753 34.3H145.103L133.153 14.65H134.853V38H127.253ZM182.557 17.1H199.407V23.4H182.557V17.1ZM183.157 31.5H202.207V38H175.107V3H201.557V9.5H183.157V31.5ZM208.752 38V3H216.852V31.4H234.402V38H208.752ZM255.441 38.6C252.675 38.6 250.108 38.15 247.741 37.25C245.408 36.35 243.375 35.0833 241.641 33.45C239.941 31.8167 238.608 29.9 237.641 27.7C236.708 25.5 236.241 23.1 236.241 20.5C236.241 17.9 236.708 15.5 237.641 13.3C238.608 11.1 239.958 9.18333 241.691 7.55C243.425 5.91666 245.458 4.65 247.791 3.75C250.125 2.85 252.658 2.4 255.391 2.4C258.158 2.4 260.691 2.85 262.991 3.75C265.325 4.65 267.341 5.91666 269.041 7.55C270.775 9.18333 272.125 11.1 273.091 13.3C274.058 15.4667 274.541 17.8667 274.541 20.5C274.541 23.1 274.058 25.5167 273.091 27.75C272.125 29.95 270.775 31.8667 269.041 33.5C267.341 35.1 265.325 36.35 262.991 37.25C260.691 38.15 258.175 38.6 255.441 38.6ZM255.391 31.7C256.958 31.7 258.391 31.4333 259.691 30.9C261.025 30.3667 262.191 29.6 263.191 28.6C264.191 27.6 264.958 26.4167 265.491 25.05C266.058 23.6833 266.341 22.1667 266.341 20.5C266.341 18.8333 266.058 17.3167 265.491 15.95C264.958 14.5833 264.191 13.4 263.191 12.4C262.225 11.4 261.075 10.6333 259.741 10.1C258.408 9.56667 256.958 9.3 255.391 9.3C253.825 9.3 252.375 9.56667 251.041 10.1C249.741 10.6333 248.591 11.4 247.591 12.4C246.591 13.4 245.808 14.5833 245.241 15.95C244.708 17.3167 244.441 18.8333 244.441 20.5C244.441 22.1333 244.708 23.65 245.241 25.05C245.808 26.4167 246.575 27.6 247.541 28.6C248.541 29.6 249.708 30.3667 251.041 30.9C252.375 31.4333 253.825 31.7 255.391 31.7ZM292.229 38.6C289.429 38.6 286.746 38.2333 284.179 37.5C281.612 36.7333 279.546 35.75 277.979 34.55L280.729 28.45C282.229 29.5167 283.996 30.4 286.029 31.1C288.096 31.7667 290.179 32.1 292.279 32.1C293.879 32.1 295.162 31.95 296.129 31.65C297.129 31.3167 297.862 30.8667 298.329 30.3C298.796 29.7333 299.029 29.0833 299.029 28.35C299.029 27.4167 298.662 26.6833 297.929 26.15C297.196 25.5833 296.229 25.1333 295.029 24.8C293.829 24.4333 292.496 24.1 291.029 23.8C289.596 23.4667 288.146 23.0667 286.679 22.6C285.246 22.1333 283.929 21.5333 282.729 20.8C281.529 20.0667 280.546 19.1 279.779 17.9C279.046 16.7 278.679 15.1667 278.679 13.3C278.679 11.3 279.212 9.48333 280.279 7.85C281.379 6.18333 283.012 4.86666 285.179 3.9C287.379 2.9 290.129 2.4 293.429 2.4C295.629 2.4 297.796 2.66667 299.929 3.2C302.062 3.7 303.946 4.46666 305.579 5.5L303.079 11.65C301.446 10.7167 299.812 10.0333 298.179 9.6C296.546 9.13333 294.946 8.9 293.379 8.9C291.812 8.9 290.529 9.08333 289.529 9.45C288.529 9.81667 287.812 10.3 287.379 10.9C286.946 11.4667 286.729 12.1333 286.729 12.9C286.729 13.8 287.096 14.5333 287.829 15.1C288.562 15.6333 289.529 16.0667 290.729 16.4C291.929 16.7333 293.246 17.0667 294.679 17.4C296.146 17.7333 297.596 18.1167 299.029 18.55C300.496 18.9833 301.829 19.5667 303.029 20.3C304.229 21.0333 305.196 22 305.929 23.2C306.696 24.4 307.079 25.9167 307.079 27.75C307.079 29.7167 306.529 31.5167 305.429 33.15C304.329 34.7833 302.679 36.1 300.479 37.1C298.312 38.1 295.562 38.6 292.229 38.6Z" fill="black"/>
</svg>
