<svg width="304" height="37" viewBox="0 0 304 37" fill="none" xmlns="http://www.w3.org/2000/svg">
<path d="M0.15 36V0.999998H6.85L21.75 25.7H18.2L32.85 0.999998H39.5L39.6 36H32L31.95 12.65H33.35L21.65 32.3H18L6.05 12.65H7.75V36H0.15ZM43.4039 36L59.0039 0.999998H67.0039L82.6539 36H74.1539L61.3539 5.1H64.5539L51.7039 36H43.4039ZM51.2039 28.5L53.3539 22.35H71.3539L73.5539 28.5H51.2039ZM86.3852 36V0.999998H101.535C104.668 0.999998 107.368 1.51666 109.635 2.55C111.902 3.55 113.652 5 114.885 6.9C116.118 8.8 116.735 11.0667 116.735 13.7C116.735 16.3 116.118 18.55 114.885 20.45C113.652 22.3167 111.902 23.75 109.635 24.75C107.368 25.75 104.668 26.25 101.535 26.25H90.8852L94.4852 22.7V36H86.3852ZM108.635 36L99.8852 23.3H108.535L117.385 36H108.635ZM94.4852 23.6L90.8852 19.8H101.085C103.585 19.8 105.452 19.2667 106.685 18.2C107.918 17.1 108.535 15.6 108.535 13.7C108.535 11.7667 107.918 10.2667 106.685 9.2C105.452 8.13333 103.585 7.6 101.085 7.6H90.8852L94.4852 3.75V23.6ZM123.253 36V0.999998H129.953L144.853 25.7H141.303L155.953 0.999998H162.603L162.703 36H155.103L155.053 12.65H156.453L144.753 32.3H141.103L129.153 12.65H130.853V36H123.253ZM178.557 15.1H195.407V21.4H178.557V15.1ZM179.157 29.5H198.207V36H171.107V0.999998H197.557V7.5H179.157V29.5ZM204.752 36V0.999998H212.852V29.4H230.402V36H204.752ZM251.441 36.6C248.675 36.6 246.108 36.15 243.741 35.25C241.408 34.35 239.375 33.0833 237.641 31.45C235.941 29.8167 234.608 27.9 233.641 25.7C232.708 23.5 232.241 21.1 232.241 18.5C232.241 15.9 232.708 13.5 233.641 11.3C234.608 9.1 235.958 7.18333 237.691 5.55C239.425 3.91666 241.458 2.65 243.791 1.75C246.125 0.849999 248.658 0.399999 251.391 0.399999C254.158 0.399999 256.691 0.849999 258.991 1.75C261.325 2.65 263.341 3.91666 265.041 5.55C266.775 7.18333 268.125 9.1 269.091 11.3C270.058 13.4667 270.541 15.8667 270.541 18.5C270.541 21.1 270.058 23.5167 269.091 25.75C268.125 27.95 266.775 29.8667 265.041 31.5C263.341 33.1 261.325 34.35 258.991 35.25C256.691 36.15 254.175 36.6 251.441 36.6ZM251.391 29.7C252.958 29.7 254.391 29.4333 255.691 28.9C257.025 28.3667 258.191 27.6 259.191 26.6C260.191 25.6 260.958 24.4167 261.491 23.05C262.058 21.6833 262.341 20.1667 262.341 18.5C262.341 16.8333 262.058 15.3167 261.491 13.95C260.958 12.5833 260.191 11.4 259.191 10.4C258.225 9.4 257.075 8.63333 255.741 8.1C254.408 7.56667 252.958 7.3 251.391 7.3C249.825 7.3 248.375 7.56667 247.041 8.1C245.741 8.63333 244.591 9.4 243.591 10.4C242.591 11.4 241.808 12.5833 241.241 13.95C240.708 15.3167 240.441 16.8333 240.441 18.5C240.441 20.1333 240.708 21.65 241.241 23.05C241.808 24.4167 242.575 25.6 243.541 26.6C244.541 27.6 245.708 28.3667 247.041 28.9C248.375 29.4333 249.825 29.7 251.391 29.7ZM288.229 36.6C285.429 36.6 282.746 36.2333 280.179 35.5C277.612 34.7333 275.546 33.75 273.979 32.55L276.729 26.45C278.229 27.5167 279.996 28.4 282.029 29.1C284.096 29.7667 286.179 30.1 288.279 30.1C289.879 30.1 291.162 29.95 292.129 29.65C293.129 29.3167 293.862 28.8667 294.329 28.3C294.796 27.7333 295.029 27.0833 295.029 26.35C295.029 25.4167 294.662 24.6833 293.929 24.15C293.196 23.5833 292.229 23.1333 291.029 22.8C289.829 22.4333 288.496 22.1 287.029 21.8C285.596 21.4667 284.146 21.0667 282.679 20.6C281.246 20.1333 279.929 19.5333 278.729 18.8C277.529 18.0667 276.546 17.1 275.779 15.9C275.046 14.7 274.679 13.1667 274.679 11.3C274.679 9.3 275.212 7.48333 276.279 5.85C277.379 4.18333 279.012 2.86666 281.179 1.9C283.379 0.899999 286.129 0.399999 289.429 0.399999C291.629 0.399999 293.796 0.666666 295.929 1.2C298.062 1.7 299.946 2.46666 301.579 3.5L299.079 9.65C297.446 8.71667 295.812 8.03333 294.179 7.6C292.546 7.13333 290.946 6.9 289.379 6.9C287.812 6.9 286.529 7.08333 285.529 7.45C284.529 7.81667 283.812 8.3 283.379 8.9C282.946 9.46666 282.729 10.1333 282.729 10.9C282.729 11.8 283.096 12.5333 283.829 13.1C284.562 13.6333 285.529 14.0667 286.729 14.4C287.929 14.7333 289.246 15.0667 290.679 15.4C292.146 15.7333 293.596 16.1167 295.029 16.55C296.496 16.9833 297.829 17.5667 299.029 18.3C300.229 19.0333 301.196 20 301.929 21.2C302.696 22.4 303.079 23.9167 303.079 25.75C303.079 27.7167 302.529 29.5167 301.429 31.15C300.329 32.7833 298.679 34.1 296.479 35.1C294.312 36.1 291.562 36.6 288.229 36.6Z" fill="white"/>
</svg>
